<svg width="170" height="71" viewBox="0 0 170 71" fill="none" xmlns="http://www.w3.org/2000/svg">
<g clip-path="url(#clip0_173_2591)">
<path d="M15.0328 42.6927C19.396 40.2416 26.2167 40.1661 27.4076 43.139C28.5963 46.4072 24.563 49.7142 21.8879 52.9824C20.6992 53.8727 17.298 52.3507 15.2161 53.5385C15.2161 53.5385 21.9451 56.4176 22.2429 56.1201L54.2598 28.0341C49.4455 18.9917 39.9222 12.833 28.9559 12.833C13.1341 12.833 0.310425 25.6493 0.310425 41.4569C0.310425 46.62 1.68006 51.4627 4.07348 55.6464C4.07348 55.6464 6.8952 47.3043 15.0328 42.6927Z" fill="#00255C"/>
<path d="M53.4924 25.1963L26.9907 45.025L49.9768 25.876L53.4924 25.1963Z" fill="white"/>
<path d="M37.0799 32.2659L28.8117 34.3325C28.4017 34.4355 27.9803 34.4859 27.5566 34.4859H18.6059L11.3706 40.3608H9.65972L15.594 34.4859C15.594 34.4859 14.7855 34.5591 14.0939 34.3692C12.6944 33.9847 12.273 32.1652 14.7764 31.1262C13.7366 30.3091 8.1687 25.7822 8.1687 25.7822L9.34823 26.1003L18.528 30.2519L39.0817 30.1764L37.0799 32.2659Z" fill="white"/>
<path d="M28.1749 56.1135L56.0279 31.9639C55.792 31.2613 55.5286 30.5725 55.2378 29.895L24.9982 56.1135H28.1749Z" fill="url(#paint0_linear_173_2591)"/>
<path d="M34.2147 56.1135L57.1091 36.2642C56.974 35.4792 56.8114 34.7034 56.6144 33.939L31.038 56.1135H34.2147Z" fill="url(#paint1_linear_173_2591)"/>
<path d="M40.2542 56.1133L57.519 41.1434C57.519 41.1297 57.519 41.1182 57.519 41.1045C57.519 40.2234 57.4777 39.3537 57.3999 38.4932L37.0775 56.1133H40.2542Z" fill="url(#paint2_linear_173_2591)"/>
<path d="M46.2939 56.1134L56.9349 46.8879C57.1479 45.8558 57.3014 44.803 57.3976 43.7319L43.1172 56.1134H46.2939Z" fill="url(#paint3_linear_173_2591)"/>
<path d="M52.3338 56.1132L54.1936 54.4997C54.9334 53.1037 55.5632 51.6412 56.0671 50.1216L49.1571 56.1132H52.3338Z" fill="url(#paint4_linear_173_2591)"/>
<path d="M44.2051 18.9138C43.3966 18.3852 42.5354 17.9457 41.6605 17.5452C41.2253 17.337 40.7764 17.1676 40.3298 16.9868C39.8809 16.8152 39.4251 16.6641 38.9716 16.5039C37.1462 15.9066 35.2635 15.4855 33.3579 15.2886C31.4524 15.1033 29.533 15.0323 27.6252 15.1925C25.7219 15.371 23.8186 15.648 21.9886 16.2018C21.0587 16.4238 20.1701 16.7808 19.2654 17.0921C18.821 17.2683 18.3882 17.472 17.9507 17.6619C17.7331 17.7604 17.511 17.8496 17.2957 17.9549L16.6612 18.289L16.0268 18.6232C15.8138 18.733 15.6031 18.8452 15.4015 18.9756L14.1785 19.7263C13.3952 20.2733 12.5936 20.8019 11.8538 21.4107C10.3513 22.5985 8.95877 23.9305 7.72656 25.4044C6.48747 26.8691 5.39726 28.4757 4.64832 30.2586C4.96438 29.3477 5.36978 28.4597 5.86908 27.6312C6.35463 26.7913 6.91119 25.9948 7.49981 25.2236C8.69996 23.6971 10.0742 22.3079 11.5652 21.0583C12.2981 20.4175 13.0974 19.859 13.8945 19.3006L15.1336 18.5248C15.3374 18.3897 15.5504 18.273 15.7657 18.1609L16.4093 17.8153L17.0529 17.4697C17.2705 17.3598 17.4949 17.266 17.7171 17.1653C18.1637 16.9685 18.6035 16.7579 19.0547 16.5726C19.9731 16.2453 20.8778 15.87 21.826 15.6388C25.5891 14.5998 29.5514 14.3343 33.4129 14.8446C35.3437 15.101 37.2401 15.577 39.0655 16.2384C39.5167 16.4192 39.9702 16.5932 40.4145 16.7877C40.8543 16.9914 41.3009 17.1836 41.7269 17.4125C42.5927 17.8427 43.4309 18.3325 44.2051 18.9138Z" fill="white"/>
<path d="M70.4892 14.5244C66.6803 12.8605 62.7478 13.11 56.4859 15.3941C55.3522 15.8083 53.4581 16.5109 51.1196 17.3806L50.7898 2.71049L45.0181 0.275391L44.0791 0.767445L48.4789 3.44285L43.8729 20.0949C34.4665 23.6148 24.2286 27.4689 21.4091 28.5308L21.2809 28.4758L20.6854 23.7338L19.0867 24.4456L18.4614 27.2743L8.91294 23.2097L5.99731 24.1275L15.2847 31.1993C12.4859 32.1148 13.2119 33.6687 13.993 33.9869C14.1121 34.0349 14.5083 34.0715 15.0969 34.099L9.6344 39.9922L11.3132 39.9876L18.5301 34.1471C22.6024 34.131 28.0855 33.9388 29.1963 33.6138C30.5064 33.2293 31.8486 33.0691 37.0271 31.3641L22.8452 46.556L18.3217 45.2286L16.8994 45.6772L21.3816 47.9887L24.4393 47.0252L50.5837 26.5694C58.8931 23.5027 66.7765 20.5892 69.0921 19.0948C71.687 17.4149 72.7635 15.7877 70.4892 14.5244Z" fill="url(#paint5_linear_173_2591)"/>
<path d="M60.3084 19.9025C60.2191 19.9322 60.1206 19.8842 60.0885 19.7926L59.9534 19.3852C59.9236 19.296 59.9717 19.1976 60.0633 19.1655C60.1526 19.1358 60.2511 19.1838 60.2832 19.2754L60.4183 19.6828C60.4481 19.7743 60.4 19.8727 60.3084 19.9025Z" fill="white"/>
<path d="M59.6281 20.129C59.5388 20.1588 59.4403 20.1107 59.4082 20.0192L59.2731 19.6118C59.2433 19.5225 59.2914 19.4241 59.383 19.3921C59.4723 19.3623 59.5708 19.4104 59.6029 19.5019L59.738 19.9093C59.7678 20.0009 59.7197 20.0993 59.6281 20.129Z" fill="white"/>
<path d="M58.948 20.3561C58.8587 20.3858 58.7602 20.3378 58.7282 20.2462L58.593 19.8388C58.5632 19.7496 58.6113 19.6512 58.703 19.6191C58.7923 19.5894 58.8908 19.6374 58.9228 19.729L59.058 20.1364C59.0877 20.2279 59.0374 20.3263 58.948 20.3561Z" fill="white"/>
<path d="M58.268 20.5826C58.1787 20.6124 58.0802 20.5643 58.0481 20.4728L57.913 20.0654C57.8832 19.9762 57.9313 19.8777 58.0229 19.8457C58.1122 19.816 58.2107 19.864 58.2428 19.9556L58.3779 20.3629C58.4077 20.4545 58.3573 20.5529 58.268 20.5826Z" fill="white"/>
<path d="M57.5876 20.8087C57.4982 20.8385 57.3997 20.7904 57.3677 20.6989L57.2325 20.2915C57.2028 20.2022 57.2509 20.1038 57.3425 20.0718C57.4318 20.042 57.5303 20.0901 57.5624 20.1816L57.6975 20.589C57.7273 20.6806 57.6769 20.779 57.5876 20.8087Z" fill="white"/>
<path d="M56.9052 21.0358C56.8159 21.0655 56.7174 21.0175 56.6853 20.9259L56.5502 20.5185C56.5204 20.4293 56.5685 20.3309 56.6601 20.2988C56.7494 20.2691 56.8479 20.3171 56.88 20.4087L57.0151 20.8161C57.0449 20.9076 56.9968 21.006 56.9052 21.0358Z" fill="white"/>
<path d="M56.2249 21.2623C56.1356 21.2921 56.0371 21.244 56.005 21.1525L55.8699 20.7451C55.8401 20.6558 55.8882 20.5574 55.9798 20.5254C56.0691 20.4956 56.1676 20.5437 56.1997 20.6352L56.3348 21.0426C56.3646 21.1342 56.3165 21.2326 56.2249 21.2623Z" fill="white"/>
<path d="M55.5443 21.4884C55.455 21.5182 55.3565 21.4701 55.3245 21.3785L55.1893 20.9712C55.1596 20.8819 55.2077 20.7835 55.2993 20.7515C55.3886 20.7217 55.4871 20.7698 55.5191 20.8613L55.6543 21.2687C55.6841 21.3602 55.6337 21.4587 55.5443 21.4884Z" fill="white"/>
<path d="M54.8642 21.715C54.7748 21.7447 54.6764 21.6967 54.6443 21.6051L54.5092 21.1977C54.4794 21.1085 54.5275 21.0101 54.6191 20.978C54.7084 20.9483 54.8069 20.9963 54.839 21.0879L54.9741 21.4953C55.0039 21.5868 54.9535 21.6852 54.8642 21.715Z" fill="white"/>
<path d="M54.1842 21.942C54.0949 21.9718 53.9964 21.9237 53.9644 21.8322L53.8292 21.4248C53.7995 21.3355 53.8476 21.2371 53.9392 21.2051C54.0285 21.1753 54.127 21.2234 54.159 21.3149L54.2942 21.7223C54.3239 21.8139 54.2736 21.9123 54.1842 21.942Z" fill="white"/>
<path d="M53.5016 22.1686C53.4123 22.1983 53.3138 22.1503 53.2817 22.0587L53.1466 21.6513C53.1168 21.5621 53.1649 21.4637 53.2565 21.4316C53.3459 21.4019 53.4444 21.4499 53.4764 21.5415L53.6116 21.9489C53.6413 22.0404 53.5932 22.1388 53.5016 22.1686Z" fill="white"/>
<path d="M52.8211 22.3947C52.7318 22.4244 52.6333 22.3763 52.6012 22.2848L52.4661 21.8774C52.4363 21.7882 52.4844 21.6898 52.576 21.6577C52.6653 21.628 52.7638 21.676 52.7959 21.7676L52.931 22.1749C52.9608 22.2642 52.9127 22.3626 52.8211 22.3947Z" fill="white"/>
<path d="M52.1411 22.6217C52.0518 22.6515 51.9533 22.6034 51.9213 22.5118L51.7861 22.1045C51.7564 22.0152 51.8045 21.9168 51.8961 21.8848C51.9854 21.855 52.0839 21.9031 52.116 21.9946L52.2511 22.402C52.2809 22.4913 52.2305 22.5897 52.1411 22.6217Z" fill="white"/>
<path d="M51.4608 22.8478C51.3715 22.8775 51.273 22.8295 51.241 22.7379L51.1058 22.3305C51.0761 22.2413 51.1242 22.1429 51.2158 22.1108C51.3051 22.0811 51.4036 22.1291 51.4357 22.2207L51.5708 22.6281C51.6006 22.7173 51.5502 22.8157 51.4608 22.8478Z" fill="white"/>
<path d="M50.7809 23.0729C50.6916 23.1026 50.5931 23.0546 50.561 22.963L50.4259 22.5556C50.3961 22.4664 50.4442 22.368 50.5358 22.3359C50.6252 22.3062 50.7237 22.3542 50.7557 22.4458L50.8909 22.8532C50.9183 22.9447 50.8702 23.0431 50.7809 23.0729Z" fill="white"/>
<path d="M50.0983 23.2989C50.009 23.3287 49.9105 23.2806 49.8784 23.1891L49.7433 22.7817C49.7135 22.6925 49.7616 22.5941 49.8532 22.562C49.9426 22.5323 50.041 22.5803 50.0731 22.6719L50.2082 23.0792C50.238 23.1708 50.1899 23.2692 50.0983 23.2989Z" fill="white"/>
<path d="M49.4178 23.5255C49.3284 23.5553 49.2299 23.5072 49.1979 23.4157L49.0628 23.0083C49.033 22.919 49.0811 22.8206 49.1727 22.7886C49.262 22.7588 49.3605 22.8069 49.3926 22.8984L49.5277 23.3058C49.5575 23.3973 49.5094 23.4958 49.4178 23.5255Z" fill="white"/>
<path d="M48.7377 23.7521C48.6484 23.7818 48.5499 23.7338 48.5178 23.6422L48.3827 23.2348C48.3529 23.1456 48.401 23.0472 48.4926 23.0151C48.582 22.9854 48.6804 23.0334 48.7125 23.125L48.8476 23.5324C48.8774 23.6239 48.827 23.7223 48.7377 23.7521Z" fill="white"/>
<path d="M48.0573 23.9786C47.968 24.0084 47.8695 23.9603 47.8374 23.8688L47.7023 23.4614C47.6725 23.3721 47.7206 23.2737 47.8122 23.2417C47.9015 23.2119 48 23.26 48.0321 23.3516L48.1672 23.7589C48.197 23.8505 48.1466 23.9489 48.0573 23.9786Z" fill="white"/>
<path d="M47.3748 24.2057C47.2855 24.2354 47.187 24.1874 47.1549 24.0958L47.0198 23.6885C46.99 23.5992 47.0381 23.5008 47.1297 23.4687C47.219 23.439 47.3175 23.4871 47.3496 23.5786L47.4847 23.986C47.5145 24.0775 47.4664 24.1759 47.3748 24.2057Z" fill="white"/>
<path d="M46.6945 24.4318C46.6052 24.4615 46.5067 24.4135 46.4746 24.3219L46.3395 23.9145C46.3097 23.8253 46.3578 23.7269 46.4494 23.6948C46.5387 23.6651 46.6372 23.7131 46.6693 23.8047L46.8044 24.2121C46.8342 24.3036 46.7861 24.402 46.6945 24.4318Z" fill="white"/>
<path d="M46.0143 24.6583C45.925 24.6881 45.8265 24.64 45.7944 24.5485L45.6593 24.1411C45.6295 24.0518 45.6776 23.9534 45.7692 23.9214C45.8586 23.8916 45.9571 23.9397 45.9891 24.0312L46.1242 24.4386C46.154 24.5302 46.1036 24.6286 46.0143 24.6583Z" fill="white"/>
<path d="M45.3343 24.8854C45.2449 24.9151 45.1464 24.8671 45.1144 24.7755L44.9793 24.3681C44.9495 24.2789 44.9976 24.1805 45.0892 24.1484C45.1785 24.1187 45.277 24.1667 45.3091 24.2583L45.4442 24.6657C45.474 24.7572 45.4236 24.8556 45.3343 24.8854Z" fill="white"/>
<path d="M44.6542 25.1114C44.5649 25.1412 44.4664 25.0931 44.4343 25.0016L44.2992 24.5942C44.2694 24.505 44.3175 24.4066 44.4091 24.3745C44.4985 24.3448 44.5969 24.3928 44.629 24.4844L44.7641 24.8917C44.7939 24.9833 44.7435 25.0817 44.6542 25.1114Z" fill="white"/>
<path d="M43.9713 25.338C43.882 25.3678 43.7835 25.3197 43.7515 25.2282L43.6163 24.8208C43.5866 24.7315 43.6347 24.6331 43.7263 24.6011C43.8156 24.5713 43.9141 24.6194 43.9462 24.7109L44.0813 25.1183C44.1111 25.2098 44.063 25.3083 43.9713 25.338Z" fill="white"/>
<path d="M43.2912 25.5646C43.2018 25.5943 43.1034 25.5463 43.0713 25.4547L42.9362 25.0473C42.9064 24.9581 42.9545 24.8597 43.0461 24.8276C43.1354 24.7979 43.2339 24.8459 43.266 24.9375L43.4011 25.3449C43.4309 25.4364 43.3828 25.5348 43.2912 25.5646Z" fill="white"/>
<path d="M42.611 25.7911C42.5217 25.8209 42.4232 25.7728 42.3911 25.6813L42.256 25.2739C42.2262 25.1847 42.2743 25.0862 42.3659 25.0542C42.4552 25.0244 42.5537 25.0725 42.5858 25.1641L42.7209 25.5714C42.7507 25.663 42.7003 25.7614 42.611 25.7911Z" fill="white"/>
<path d="M41.9306 26.0177C41.8412 26.0475 41.7428 25.9994 41.7107 25.9078L41.5756 25.5005C41.5458 25.4112 41.5939 25.3128 41.6855 25.2808C41.7748 25.251 41.8733 25.2991 41.9054 25.3906L42.0405 25.798C42.0703 25.8895 42.0199 25.9879 41.9306 26.0177Z" fill="white"/>
<path d="M41.2506 26.2443C41.1613 26.274 41.0628 26.226 41.0308 26.1344L40.8956 25.727C40.8659 25.6378 40.914 25.5394 41.0056 25.5073C41.0949 25.4776 41.1934 25.5256 41.2254 25.6172L41.3606 26.0246C41.3904 26.1161 41.34 26.2145 41.2506 26.2443Z" fill="white"/>
<path d="M40.568 26.4713C40.4787 26.5011 40.3802 26.453 40.3481 26.3615L40.213 25.9541C40.1832 25.8648 40.2313 25.7664 40.323 25.7344C40.4123 25.7046 40.5108 25.7527 40.5428 25.8442L40.678 26.2516C40.7077 26.3431 40.6596 26.4416 40.568 26.4713Z" fill="white"/>
<path d="M39.8875 26.6974C39.7982 26.7271 39.6997 26.6791 39.6676 26.5875L39.5325 26.1802C39.5027 26.0909 39.5508 25.9925 39.6424 25.9604C39.7317 25.9307 39.8302 25.9788 39.8623 26.0703L39.9974 26.4777C40.0272 26.5669 39.9791 26.6653 39.8875 26.6974Z" fill="white"/>
<path d="M39.2076 26.9239C39.1182 26.9537 39.0197 26.9056 38.9877 26.8141L38.8525 26.4067C38.8228 26.3175 38.8709 26.2191 38.9625 26.187C39.0518 26.1573 39.1503 26.2053 39.1824 26.2969L39.3175 26.7042C39.3473 26.7935 39.2969 26.8919 39.2076 26.9239Z" fill="white"/>
<path d="M38.5274 27.151C38.4381 27.1808 38.3396 27.1327 38.3075 27.0411L38.1724 26.6338C38.1426 26.5445 38.1907 26.4461 38.2823 26.4141C38.3716 26.3843 38.4701 26.4324 38.5022 26.5239L38.6373 26.9313C38.6671 27.0205 38.6167 27.119 38.5274 27.151Z" fill="white"/>
<path d="M37.8471 27.3751C37.7578 27.4049 37.6593 27.3568 37.6272 27.2653L37.4921 26.8579C37.4623 26.7686 37.5104 26.6702 37.602 26.6382C37.6913 26.6084 37.7898 26.6565 37.8219 26.748L37.957 27.1554C37.9868 27.247 37.9364 27.3454 37.8471 27.3751Z" fill="white"/>
<path d="M37.1647 27.6017C37.0754 27.6314 36.9769 27.5834 36.9448 27.4918L36.8097 27.0845C36.7799 26.9952 36.828 26.8968 36.9196 26.8647C37.009 26.835 37.1074 26.8831 37.1395 26.9746L37.2746 27.382C37.3044 27.4735 37.2563 27.5719 37.1647 27.6017Z" fill="white"/>
<path d="M36.4842 27.8278C36.3948 27.8575 36.2964 27.8094 36.2643 27.7179L36.1292 27.3105C36.0994 27.2213 36.1475 27.1229 36.2391 27.0908C36.3284 27.0611 36.4269 27.1091 36.459 27.2007L36.5941 27.608C36.6239 27.6996 36.5758 27.798 36.4842 27.8278Z" fill="white"/>
<path d="M35.8042 28.0548C35.7149 28.0846 35.6164 28.0365 35.5844 27.945L35.4492 27.5376C35.4195 27.4483 35.4675 27.3499 35.5592 27.3179C35.6485 27.2881 35.747 27.3362 35.779 27.4277L35.9142 27.8351C35.9439 27.9266 35.8936 28.0251 35.8042 28.0548Z" fill="white"/>
<path d="M35.1238 28.2814C35.0345 28.3111 34.936 28.2631 34.9039 28.1715L34.7688 27.7641C34.739 27.6749 34.7871 27.5765 34.8787 27.5444C34.9681 27.5147 35.0666 27.5627 35.0986 27.6543L35.2337 28.0617C35.2635 28.1532 35.2131 28.2516 35.1238 28.2814Z" fill="white"/>
<path d="M34.4411 28.5079C34.3517 28.5377 34.2533 28.4896 34.2212 28.3981L34.0861 27.9907C34.0563 27.9014 34.1044 27.803 34.196 27.771C34.2853 27.7412 34.3838 27.7893 34.4159 27.8809L34.551 28.2882C34.5808 28.3798 34.5327 28.4782 34.4411 28.5079Z" fill="white"/>
<path d="M33.7609 28.7345C33.6716 28.7642 33.5731 28.7162 33.541 28.6246L33.4059 28.2173C33.3761 28.128 33.4242 28.0296 33.5158 27.9976C33.6051 27.9678 33.7036 28.0159 33.7357 28.1074L33.8708 28.5148C33.9006 28.6063 33.8525 28.7047 33.7609 28.7345Z" fill="white"/>
<path d="M33.0807 28.9611C32.9914 28.9908 32.8929 28.9427 32.8608 28.8512L32.7257 28.4438C32.6959 28.3546 32.744 28.2562 32.8357 28.2241C32.925 28.1944 33.0235 28.2424 33.0555 28.334L33.1907 28.7413C33.2204 28.8329 33.1723 28.9313 33.0807 28.9611Z" fill="white"/>
<path d="M32.4004 29.1876C32.3111 29.2174 32.2126 29.1693 32.1805 29.0778L32.0454 28.6704C32.0156 28.5811 32.0637 28.4827 32.1554 28.4507C32.2447 28.4209 32.3432 28.469 32.3752 28.5605L32.5104 28.9679C32.5401 29.0595 32.4897 29.1579 32.4004 29.1876Z" fill="white"/>
<path d="M31.7201 29.4142C31.6308 29.4439 31.5323 29.3959 31.5002 29.3043L31.3651 28.897C31.3353 28.8077 31.3834 28.7093 31.4751 28.6772C31.5644 28.6475 31.6629 28.6956 31.6949 28.7871L31.8301 29.1945C31.8598 29.286 31.8094 29.3844 31.7201 29.4142Z" fill="white"/>
<path d="M31.0379 29.6407C30.9485 29.6705 30.8501 29.6224 30.818 29.5309L30.6829 29.1235C30.6531 29.0343 30.7012 28.9358 30.7928 28.9038C30.8821 28.8741 30.9806 28.9221 31.0127 29.0137L31.1478 29.421C31.1776 29.5126 31.1295 29.611 31.0379 29.6407Z" fill="white"/>
<path d="M30.3575 29.8673C30.2681 29.8971 30.1696 29.849 30.1376 29.7575L30.0024 29.3501C29.9727 29.2608 30.0208 29.1624 30.1124 29.1304C30.2017 29.1006 30.3002 29.1487 30.3323 29.2402L30.4674 29.6476C30.4972 29.7391 30.4491 29.8376 30.3575 29.8673Z" fill="white"/>
<path d="M29.6773 30.0939C29.588 30.1236 29.4895 30.0756 29.4574 29.984L29.3223 29.5766C29.2925 29.4874 29.3406 29.389 29.4322 29.3569C29.5215 29.3272 29.62 29.3752 29.6521 29.4668L29.7872 29.8742C29.817 29.9657 29.7666 30.0641 29.6773 30.0939Z" fill="white"/>
<path d="M28.9971 30.3204C28.9078 30.3502 28.8093 30.3021 28.7772 30.2106L28.6421 29.8032C28.6123 29.7139 28.6604 29.6155 28.752 29.5835C28.8414 29.5537 28.9398 29.6018 28.9719 29.6933L29.107 30.1007C29.1368 30.1923 29.0864 30.2907 28.9971 30.3204Z" fill="white"/>
<path d="M28.3169 30.547C28.2276 30.5767 28.1291 30.5287 28.0971 30.4371L27.9619 30.0298C27.9321 29.9405 27.9802 29.8421 28.0719 29.8101C28.1612 29.7803 28.2597 29.8284 28.2917 29.9199L28.4269 30.3273C28.4566 30.4188 28.4062 30.5172 28.3169 30.547Z" fill="white"/>
<path d="M27.6343 30.7736C27.545 30.8033 27.4465 30.7553 27.4144 30.6637L27.2793 30.2563C27.2495 30.1671 27.2976 30.0687 27.3892 30.0366C27.4786 30.0069 27.577 30.0549 27.6091 30.1465L27.7442 30.5539C27.774 30.6454 27.7259 30.7438 27.6343 30.7736Z" fill="white"/>
<path d="M26.954 31.0006C26.8647 31.0304 26.7662 30.9823 26.7341 30.8908L26.599 30.4834C26.5692 30.3941 26.6173 30.2957 26.7089 30.2637C26.7983 30.2339 26.8968 30.282 26.9288 30.3735L27.0639 30.7809C27.0937 30.8702 27.0456 30.9709 26.954 31.0006Z" fill="white"/>
<path d="M69.0763 14.2409L67.386 13.8564C67.4409 14.0006 67.5188 14.2638 67.3196 14.5522C67.1272 14.8337 66.2248 15.5752 65.6911 15.994C65.2834 16.2984 64.8895 16.5776 64.6192 16.7607C64.42 16.8935 64.3329 17.1429 64.4016 17.3718C64.4039 17.3809 64.4062 17.3878 64.4085 17.397C64.5597 17.9027 65.1598 18.1133 65.5926 17.8112C65.8217 17.651 66.0828 17.4656 66.3553 17.2665C66.3576 17.2642 66.3599 17.2642 66.3599 17.2619C66.3714 17.2551 66.3805 17.2459 66.392 17.239C67.3058 16.5547 68.5724 15.5363 68.9297 14.9962C69.1587 14.7421 69.1129 14.3783 69.0763 14.2409Z" fill="white"/>
<path d="M18.9518 32.9614L11.2906 39.5458L10.0492 39.8204L11.3135 39.6763L19.3961 33.0873L18.9518 32.9614Z" fill="white"/>
<path d="M22.3597 29.041L8.95194 23.5483L6.35925 24.1686L8.94049 23.8047L22.1673 29.4896C22.291 29.5423 22.433 29.4873 22.4857 29.3637C22.5475 29.2402 22.488 29.0937 22.3597 29.041Z" fill="white"/>
<path d="M67.1245 13.8331C65.7732 13.6478 64.1127 13.6752 61.7857 14.149C56.6805 15.1903 22.726 29.0891 22.726 29.0891C22.726 29.0891 43.8568 21.6122 51.1378 18.9276C57.1821 16.6985 61.9987 14.9019 66.3939 15.1697C66.7054 14.9752 67.0856 14.5586 67.1681 14.3984C67.294 14.1581 67.2161 13.9773 67.1245 13.8331Z" fill="white"/>
<path d="M70.3795 14.8813C70.1116 14.7211 69.8573 14.5632 69.326 14.3687C69.3947 14.6204 69.3535 14.847 69.1771 15.1308C69.1084 15.2406 68.9595 15.3688 68.8473 15.4969C69.0282 15.5381 69.145 15.5702 69.3237 15.6205C70.4574 16.005 70.9659 16.3735 70.8903 16.9434C71.1697 16.6985 71.3438 15.458 70.3795 14.8813Z" fill="white"/>
<path d="M50.4942 2.88672L49.5712 17.9688L50.4507 17.6415L50.4942 2.88672Z" fill="white"/>
<path d="M48.5729 25.7847L24.3478 46.7393L46.2986 26.501L48.5729 25.7847Z" fill="white"/>
<path d="M20.5408 23.9604L19.2101 24.544L20.4308 24.1413L20.2133 28.0136L20.8385 28.2768L20.5408 23.9604Z" fill="white"/>
</g>
<mask id="mask0_173_2591" style="mask-type:alpha" maskUnits="userSpaceOnUse" x="0" y="12" width="58" height="59">
<ellipse cx="29.1143" cy="41.5016" rx="28.8039" ry="28.774" fill="#D9D9D9"/>
</mask>
<g mask="url(#mask0_173_2591)">
<rect x="-99.0713" y="58.4971" width="226.725" height="94.2308" fill="#00255C"/>
</g>
<path d="M73.7473 34.3164L71.626 27.6899H72.525L73.5856 31.2658C73.7069 31.6631 73.8112 32.0301 73.8988 32.3668C73.9931 32.7036 74.1042 33.0672 74.2321 33.4578H74.2725C74.3938 33.0672 74.5015 32.7036 74.5958 32.3668C74.6901 32.0301 74.7944 31.6631 74.9089 31.2658L75.9696 27.6899H76.8282L74.7271 34.3164H73.7473ZM78.9459 34.3164V27.6899H79.7844V34.3164H78.9459ZM84.6501 34.4376C84.1855 34.4376 83.7545 34.3501 83.3572 34.175C82.9598 33.9999 82.6164 33.7608 82.3268 33.4578L82.8319 32.8719C83.0676 33.1211 83.3437 33.3231 83.6602 33.478C83.9835 33.6261 84.3168 33.7002 84.6602 33.7002C85.098 33.7002 85.4381 33.6026 85.6805 33.4073C85.9229 33.2053 86.0441 32.9426 86.0441 32.6194C86.0441 32.451 86.0138 32.3096 85.9532 32.1951C85.8993 32.0739 85.8219 31.9729 85.7209 31.8921C85.6266 31.8045 85.5121 31.7271 85.3774 31.6597C85.2428 31.5924 85.098 31.5217 84.9431 31.4476L83.9936 31.0335C83.8387 30.9661 83.6804 30.8853 83.5188 30.791C83.3572 30.6967 83.2124 30.5823 83.0844 30.4476C82.9565 30.3129 82.8521 30.1546 82.7713 29.9728C82.6905 29.7842 82.6501 29.5688 82.6501 29.3263C82.6501 29.0772 82.7006 28.8448 82.8016 28.6293C82.9093 28.4138 83.0541 28.2286 83.2359 28.0737C83.4245 27.9121 83.6434 27.7875 83.8925 27.7C84.1484 27.6124 84.4279 27.5687 84.731 27.5687C85.1283 27.5687 85.4953 27.6461 85.832 27.801C86.1687 27.9492 86.4549 28.1445 86.6906 28.3869L86.2361 28.9324C86.034 28.7371 85.8084 28.5855 85.5593 28.4778C85.3168 28.3633 85.0407 28.3061 84.731 28.3061C84.3606 28.3061 84.0609 28.3936 83.8319 28.5687C83.6097 28.7371 83.4986 28.9728 83.4986 29.2758C83.4986 29.4374 83.5289 29.5755 83.5895 29.69C83.6568 29.7977 83.7444 29.8954 83.8521 29.9829C83.9599 30.0637 84.0777 30.1378 84.2057 30.2051C84.3336 30.2657 84.465 30.323 84.5996 30.3769L85.5391 30.7809C85.7276 30.8617 85.9061 30.956 86.0744 31.0638C86.2428 31.1648 86.3876 31.286 86.5088 31.4274C86.63 31.5621 86.7243 31.7237 86.7916 31.9123C86.8657 32.0941 86.9028 32.3062 86.9028 32.5487C86.9028 32.8113 86.8489 33.0571 86.7411 33.2861C86.6401 33.515 86.492 33.7171 86.2967 33.8921C86.1014 34.0605 85.8657 34.1952 85.5896 34.2962C85.3135 34.3905 85.0003 34.4376 84.6501 34.4376ZM90.5613 30.6092L90.2481 31.6193H92.2381L91.925 30.6092C91.8037 30.2388 91.6893 29.8718 91.5815 29.5081C91.4738 29.1378 91.366 28.7606 91.2583 28.3768H91.2179C91.1169 28.7606 91.0125 29.1378 90.9047 29.5081C90.797 29.8718 90.6825 30.2388 90.5613 30.6092ZM88.541 34.3164L90.7835 27.6899H91.733L93.9755 34.3164H93.0765L92.4502 32.2961H90.036L89.3996 34.3164H88.541ZM99.361 34.3164V27.6899H100.199V34.3164H99.361ZM103.227 34.3164V27.6899H104.237L105.51 31.2254C105.59 31.4543 105.668 31.6867 105.742 31.9224C105.823 32.1513 105.904 32.3803 105.984 32.6093H106.025C106.106 32.3803 106.18 32.1513 106.247 31.9224C106.321 31.6867 106.399 31.4543 106.479 31.2254L107.732 27.6899H108.752V34.3164H107.964V30.6698C107.964 30.3735 107.978 30.0469 108.005 29.69C108.032 29.3331 108.055 29.0064 108.075 28.7101H108.035L107.51 30.2152L106.257 33.6497H105.702L104.449 30.2152L103.924 28.7101H103.883C103.904 29.0064 103.924 29.3331 103.944 29.69C103.971 30.0469 103.984 30.3735 103.984 30.6698V34.3164H103.227ZM111.778 34.3164V27.6899H112.788L114.061 31.2254C114.142 31.4543 114.219 31.6867 114.293 31.9224C114.374 32.1513 114.455 32.3803 114.536 32.6093H114.576C114.657 32.3803 114.731 32.1513 114.799 31.9224C114.873 31.6867 114.95 31.4543 115.031 31.2254L116.283 27.6899H117.304V34.3164H116.516V30.6698C116.516 30.3735 116.529 30.0469 116.556 29.69C116.583 29.3331 116.607 29.0064 116.627 28.7101H116.586L116.061 30.2152L114.809 33.6497H114.253L113 30.2152L112.475 28.7101H112.435C112.455 29.0064 112.475 29.3331 112.495 29.69C112.522 30.0469 112.536 30.3735 112.536 30.6698V34.3164H111.778ZM120.33 34.3164V27.6899H121.168V34.3164H120.33ZM126.802 34.4376C126.364 34.4376 125.96 34.3602 125.589 34.2053C125.226 34.0504 124.913 33.8282 124.65 33.5386C124.387 33.2423 124.182 32.882 124.034 32.4577C123.886 32.0268 123.812 31.5419 123.812 31.0031C123.812 30.4711 123.886 29.993 124.034 29.5688C124.189 29.1445 124.401 28.7842 124.67 28.4879C124.94 28.1916 125.259 27.966 125.63 27.8111C126.007 27.6495 126.414 27.5687 126.852 27.5687C127.081 27.5687 127.29 27.5922 127.478 27.6394C127.674 27.6865 127.849 27.7505 128.004 27.8313C128.165 27.9054 128.307 27.9929 128.428 28.0939C128.556 28.1882 128.667 28.2859 128.761 28.3869L128.297 28.9324C128.128 28.7573 127.933 28.6091 127.711 28.4879C127.488 28.3667 127.209 28.3061 126.872 28.3061C126.536 28.3061 126.233 28.3701 125.963 28.498C125.694 28.6192 125.465 28.7977 125.276 29.0334C125.088 29.2623 124.94 29.5418 124.832 29.8718C124.731 30.2018 124.68 30.5722 124.68 30.9829C124.68 31.4005 124.727 31.7776 124.822 32.1143C124.923 32.4443 125.064 32.7271 125.246 32.9628C125.435 33.1985 125.664 33.3803 125.933 33.5083C126.209 33.6362 126.525 33.7002 126.882 33.7002C127.118 33.7002 127.34 33.6665 127.549 33.5992C127.765 33.5251 127.94 33.4275 128.074 33.3063V31.5789H126.67V30.8819H128.842V33.6699C128.627 33.8921 128.344 34.0773 127.994 34.2255C127.643 34.3669 127.246 34.4376 126.802 34.4376ZM131.642 34.3164V27.6899H133.713C134.05 27.6899 134.359 27.7236 134.642 27.7909C134.932 27.8515 135.178 27.9559 135.38 28.104C135.588 28.2522 135.75 28.4441 135.864 28.6798C135.979 28.9155 136.036 29.2051 136.036 29.5485C136.036 30.0671 135.901 30.4812 135.632 30.791C135.363 31.1008 134.999 31.3129 134.541 31.4274L136.228 34.3164H135.279L133.683 31.5183H132.48V34.3164H131.642ZM132.48 30.8314H133.592C134.11 30.8314 134.507 30.727 134.784 30.5183C135.06 30.3028 135.198 29.9795 135.198 29.5485C135.198 29.1108 135.06 28.8044 134.784 28.6293C134.507 28.4542 134.11 28.3667 133.592 28.3667H132.48V30.8314ZM139.707 30.6092L139.394 31.6193H141.384L141.071 30.6092C140.95 30.2388 140.835 29.8718 140.728 29.5081C140.62 29.1378 140.512 28.7606 140.404 28.3768H140.364C140.263 28.7606 140.159 29.1378 140.051 29.5081C139.943 29.8718 139.829 30.2388 139.707 30.6092ZM137.687 34.3164L139.93 27.6899H140.879L143.122 34.3164H142.223L141.596 32.2961H139.182L138.546 34.3164H137.687ZM146.094 34.3164V28.397H144.094V27.6899H148.943V28.397H146.943V34.3164H146.094ZM151.348 34.3164V27.6899H152.186V34.3164H151.348ZM157.658 34.4376C157.241 34.4376 156.857 34.3568 156.507 34.1952C156.163 34.0336 155.867 33.8046 155.618 33.5083C155.369 33.2053 155.173 32.8416 155.032 32.4173C154.897 31.9864 154.83 31.5049 154.83 30.9728C154.83 30.4408 154.897 29.9661 155.032 29.5485C155.173 29.1243 155.369 28.7674 155.618 28.4778C155.867 28.1815 156.163 27.9559 156.507 27.801C156.857 27.6461 157.241 27.5687 157.658 27.5687C158.076 27.5687 158.456 27.6495 158.8 27.8111C159.15 27.966 159.45 28.1916 159.699 28.4879C159.955 28.7775 160.15 29.1344 160.285 29.5587C160.426 29.9762 160.497 30.4476 160.497 30.9728C160.497 31.5049 160.426 31.9864 160.285 32.4173C160.15 32.8416 159.955 33.2053 159.699 33.5083C159.45 33.8046 159.15 34.0336 158.8 34.1952C158.456 34.3568 158.076 34.4376 157.658 34.4376ZM157.658 33.7002C157.955 33.7002 158.221 33.6362 158.456 33.5083C158.699 33.3803 158.904 33.1985 159.073 32.9628C159.248 32.7204 159.382 32.4342 159.477 32.1042C159.571 31.7675 159.618 31.3904 159.618 30.9728C159.618 30.5621 159.571 30.1917 159.477 29.8617C159.382 29.5317 159.248 29.2522 159.073 29.0233C158.904 28.7943 158.699 28.6192 158.456 28.498C158.221 28.3701 157.955 28.3061 157.658 28.3061C157.362 28.3061 157.093 28.3701 156.85 28.498C156.615 28.6192 156.409 28.7943 156.234 29.0233C156.066 29.2522 155.934 29.5317 155.84 29.8617C155.746 30.1917 155.699 30.5621 155.699 30.9728C155.699 31.3904 155.746 31.7675 155.84 32.1042C155.934 32.4342 156.066 32.7204 156.234 32.9628C156.409 33.1985 156.615 33.3803 156.85 33.5083C157.093 33.6362 157.362 33.7002 157.658 33.7002ZM163.134 34.3164V27.6899H164.003L166.397 31.8517L167.114 33.2255H167.154C167.134 32.8887 167.111 32.5419 167.084 32.185C167.063 31.8214 167.053 31.4644 167.053 31.1143V27.6899H167.851V34.3164H166.983L164.578 30.1445L163.861 28.7808H163.821C163.848 29.1176 163.871 29.461 163.892 29.8112C163.918 30.1546 163.932 30.5014 163.932 30.8516V34.3164H163.134Z" fill="url(#paint6_linear_173_2591)"/>
<path d="M75.8689 52.1807H70.5958V51.5384C71.0465 51.2905 71.5028 51.1272 71.9648 51.0483V41.4823C71.7394 41.4485 71.5028 41.3865 71.2549 41.2964C71.007 41.2063 70.7873 41.1049 70.5958 40.9922V40.3499H75.8689V40.9922C75.6661 41.1161 75.4407 41.2232 75.1929 41.3133C74.9562 41.3922 74.7253 41.4485 74.4999 41.4823V51.0483C74.7253 51.0934 74.9562 51.1553 75.1929 51.2342C75.4407 51.3131 75.6661 51.4145 75.8689 51.5384V52.1807ZM92.4162 52.1807H87.3628V51.5384C87.5881 51.4258 87.8078 51.33 88.0219 51.2511C88.236 51.1722 88.467 51.1046 88.7149 51.0483V43.9837L88.7994 42.0062H88.6642L88.1064 43.8147L84.8445 52.1807H84.0671L80.8221 43.8823L80.2137 41.9048H80.0615L80.0784 44.0513V50.9807C80.2925 51.0258 80.5291 51.099 80.7883 51.2004C81.0474 51.3018 81.2897 51.4145 81.515 51.5384V52.1807H77.3912V51.5384C77.5715 51.4483 77.7912 51.3412 78.0503 51.2173C78.3207 51.0934 78.5743 51.0089 78.8109 50.9638V41.4823C78.5855 41.4372 78.3433 41.3753 78.0841 41.2964C77.8362 41.2175 77.6165 41.1161 77.425 40.9922V40.3499H82.0052L84.591 47.2287L85.0811 48.8512H85.098L85.6051 47.1949L88.2416 40.3499H92.4331V40.9922C92.2416 41.1049 92.0331 41.2063 91.8078 41.2964C91.5937 41.3753 91.374 41.4372 91.1486 41.4823V51.0652C91.3852 51.1103 91.6106 51.1779 91.8247 51.268C92.05 51.3581 92.2472 51.4483 92.4162 51.5384V52.1807ZM108.805 52.1807H103.752V51.5384C103.977 51.4258 104.197 51.33 104.411 51.2511C104.625 51.1722 104.856 51.1046 105.104 51.0483V43.9837L105.188 42.0062H105.053L104.495 43.8147L101.233 52.1807H100.456L97.2108 43.8823L96.6024 41.9048H96.4503L96.4672 44.0513V50.9807C96.6812 51.0258 96.9179 51.099 97.177 51.2004C97.4362 51.3018 97.6784 51.4145 97.9037 51.5384V52.1807H93.7799V51.5384C93.9602 51.4483 94.1799 51.3412 94.439 51.2173C94.7095 51.0934 94.963 51.0089 95.1996 50.9638V41.4823C94.9742 41.4372 94.732 41.3753 94.4728 41.2964C94.225 41.2175 94.0052 41.1161 93.8137 40.9922V40.3499H98.3939L100.98 47.2287L101.47 48.8512H101.487L101.994 47.1949L104.63 40.3499H108.822V40.9922C108.63 41.1049 108.422 41.2063 108.196 41.2964C107.982 41.3753 107.763 41.4372 107.537 41.4823V51.0652C107.774 51.1103 107.999 51.1779 108.213 51.268C108.439 51.3581 108.636 51.4483 108.805 51.5384V52.1807ZM115.611 52.1807H110.338V51.5384C110.788 51.2905 111.245 51.1272 111.707 51.0483V41.4823C111.481 41.4485 111.245 41.3865 110.997 41.2964C110.749 41.2063 110.529 41.1049 110.338 40.9922V40.3499H115.611V40.9922C115.408 41.1161 115.183 41.2232 114.935 41.3133C114.698 41.3922 114.467 41.4485 114.242 41.4823V51.0483C114.467 51.0934 114.698 51.1553 114.935 51.2342C115.183 51.3131 115.408 51.4145 115.611 51.5384V52.1807ZM127.544 51.437C127.319 51.5497 127.043 51.6624 126.716 51.775C126.389 51.8877 126.046 51.9891 125.685 52.0793C125.324 52.1694 124.964 52.2426 124.603 52.299C124.243 52.3553 123.922 52.3835 123.64 52.3835C122.671 52.3835 121.803 52.2595 121.037 52.0117C120.282 51.7525 119.634 51.3694 119.094 50.8624C118.564 50.3441 118.158 49.7018 117.877 48.9357C117.595 48.1695 117.454 47.2794 117.454 46.2653C117.454 45.1611 117.623 44.2259 117.961 43.4597C118.31 42.6823 118.767 42.0513 119.33 41.5668C119.905 41.0711 120.553 40.7105 121.274 40.4852C121.995 40.2598 122.733 40.1471 123.488 40.1471C124.231 40.1471 124.93 40.1978 125.584 40.2992C126.237 40.4006 126.755 40.5471 127.138 40.7387C127.138 40.9077 127.127 41.1274 127.105 41.3978C127.093 41.657 127.071 41.9386 127.037 42.2429C127.003 42.5471 126.958 42.8513 126.902 43.1555C126.857 43.4597 126.8 43.7358 126.733 43.9837H126.04L125.093 41.4147C124.969 41.3584 124.784 41.3189 124.536 41.2964C124.288 41.2626 124.04 41.2457 123.792 41.2457C123.33 41.2457 122.885 41.3358 122.457 41.5161C122.029 41.6964 121.651 41.9893 121.324 42.395C120.998 42.7893 120.739 43.3076 120.547 43.9499C120.355 44.5808 120.26 45.3526 120.26 46.2653C120.26 47.0089 120.344 47.6906 120.513 48.3103C120.694 48.9188 120.941 49.4427 121.257 49.8821C121.572 50.3216 121.95 50.6652 122.389 50.9131C122.829 51.161 123.313 51.2849 123.843 51.2849C124.012 51.2849 124.186 51.2736 124.367 51.2511C124.547 51.2173 124.716 51.1779 124.874 51.1328C125.031 51.0877 125.167 51.037 125.279 50.9807C125.403 50.9244 125.488 50.8737 125.533 50.8286V47.6512C125.24 47.6287 124.964 47.5723 124.705 47.4822C124.446 47.392 124.203 47.285 123.978 47.1611V46.5188H128.592V47.1611C128.491 47.2625 128.355 47.3582 128.186 47.4484C128.017 47.5272 127.803 47.5949 127.544 47.6512V51.437ZM144.073 41.4823C143.622 41.4147 143.149 41.2513 142.653 40.9922V40.3499H146.912V40.9922C146.721 41.1161 146.518 41.2175 146.304 41.2964C146.09 41.3753 145.881 41.4372 145.679 41.4823L142.687 52.1807L140.929 52.3835L138.31 44.2034L135.758 52.1807L133.983 52.3835L130.687 41.4823C130.451 41.4372 130.231 41.3753 130.028 41.2964C129.825 41.2063 129.634 41.1049 129.454 40.9922V40.3499H134.93V40.9922C134.738 41.0936 134.518 41.1894 134.27 41.2795C134.034 41.3584 133.786 41.426 133.527 41.4823L135.099 47.4484L135.453 49.6455H135.487L136.079 47.3639L138.327 40.3499H139.324L141.724 47.2794L142.298 49.4765H142.332L142.721 47.2456L144.073 41.4823ZM150.083 52.1807H145.908V51.5384C146.089 51.4258 146.28 51.33 146.483 51.2511C146.697 51.161 146.906 51.0934 147.108 51.0483L151.469 40.1471H152.719L156.962 51.0483C157.187 51.0934 157.412 51.161 157.638 51.2511C157.863 51.33 158.06 51.4258 158.229 51.5384V52.1807H152.939V51.5384C153.153 51.437 153.384 51.3412 153.632 51.2511C153.88 51.161 154.117 51.0934 154.342 51.0483L153.362 48.361H149.61L148.613 51.0483C149.131 51.1159 149.621 51.2793 150.083 51.5384V52.1807ZM150.015 47.2625H153.007L151.908 44.0344L151.587 42.5809H151.553L151.181 44.0682L150.015 47.2625ZM164.87 40.3499H169.01V40.9922C168.841 41.0936 168.65 41.195 168.436 41.2964C168.233 41.3865 168.025 41.4485 167.811 41.4823L164.532 47.2287V51.0483C164.757 51.0708 164.977 51.1328 165.191 51.2342C165.416 51.3243 165.625 51.4258 165.816 51.5384V52.1807H160.611V51.5384C160.802 51.437 161.016 51.3412 161.253 51.2511C161.49 51.161 161.737 51.0934 161.997 51.0483V47.2456L158.583 41.4823C158.323 41.4372 158.076 41.3696 157.839 41.2795C157.614 41.1894 157.405 41.0936 157.214 40.9922V40.3499H162.757V40.9922C162.599 41.0823 162.419 41.1725 162.216 41.2626C162.013 41.3527 161.777 41.426 161.506 41.4823L163.923 46.0118L166.222 41.4823C165.963 41.426 165.715 41.3527 165.478 41.2626C165.242 41.1725 165.039 41.0823 164.87 40.9922V40.3499Z" fill="#00255C"/>
<defs>
<linearGradient id="paint0_linear_173_2591" x1="24.9982" y1="43.0043" x2="56.0279" y2="43.0043" gradientUnits="userSpaceOnUse">
<stop stop-color="#00C6FF"/>
<stop offset="1" stop-color="#0072FF"/>
</linearGradient>
<linearGradient id="paint1_linear_173_2591" x1="31.038" y1="45.0262" x2="57.1091" y2="45.0262" gradientUnits="userSpaceOnUse">
<stop stop-color="#00C6FF"/>
<stop offset="1" stop-color="#0072FF"/>
</linearGradient>
<linearGradient id="paint2_linear_173_2591" x1="37.0775" y1="47.3032" x2="57.519" y2="47.3032" gradientUnits="userSpaceOnUse">
<stop stop-color="#00C6FF"/>
<stop offset="1" stop-color="#0072FF"/>
</linearGradient>
<linearGradient id="paint3_linear_173_2591" x1="43.1172" y1="49.9227" x2="57.3976" y2="49.9227" gradientUnits="userSpaceOnUse">
<stop stop-color="#00C6FF"/>
<stop offset="1" stop-color="#0072FF"/>
</linearGradient>
<linearGradient id="paint4_linear_173_2591" x1="49.1571" y1="53.1174" x2="56.0671" y2="53.1174" gradientUnits="userSpaceOnUse">
<stop stop-color="#00C6FF"/>
<stop offset="1" stop-color="#0072FF"/>
</linearGradient>
<linearGradient id="paint5_linear_173_2591" x1="5.99731" y1="24.132" x2="71.7309" y2="24.132" gradientUnits="userSpaceOnUse">
<stop stop-color="#00C6FF"/>
<stop offset="1" stop-color="#0072FF"/>
</linearGradient>
<linearGradient id="paint6_linear_173_2591" x1="71.626" y1="30.8164" x2="169.626" y2="30.8164" gradientUnits="userSpaceOnUse">
<stop stop-color="#00C6FF"/>
<stop offset="1" stop-color="#0072FF"/>
</linearGradient>
<clipPath id="clip0_173_2591">
<rect width="71.4202" height="55.8654" fill="white" transform="translate(0.310547 0.275391)"/>
</clipPath>
</defs>
</svg>
